<?xml version="1.0" encoding="UTF-8"?>
<svg version="1.1" xmlns="http://www.w3.org/2000/svg" width="512" height="512">
<path d="M0 0 C0.58088379 0.47937012 1.16176758 0.95874023 1.76025391 1.45263672 C14.04718178 11.61523619 25.17740229 22.39379968 35 35 C36.00748515 36.2554711 37.01532077 37.510661 38.0234375 38.765625 C76.84564961 87.6465847 94.41897193 150.93237827 88.17578125 212.89794922 C82.72902587 259.40767628 65.11790521 303.94453493 35 340 C34.52062988 340.58088379 34.04125977 341.16176758 33.54736328 341.76025391 C23.38476381 354.04718178 12.60620032 365.17740229 0 375 C-1.2554711 376.00748515 -2.510661 377.01532077 -3.765625 378.0234375 C-52.6465847 416.84564961 -115.93237827 434.41897193 -177.89794922 428.17578125 C-224.40767628 422.72902587 -268.94453493 405.11790521 -305 375 C-305.87132568 374.28094482 -305.87132568 374.28094482 -306.76025391 373.54736328 C-319.04718178 363.38476381 -330.17740229 352.60620032 -340 340 C-341.00748515 338.7445289 -342.01532077 337.489339 -343.0234375 336.234375 C-381.84564961 287.3534153 -399.41897193 224.06762173 -393.17578125 162.10205078 C-387.72902587 115.59232372 -370.11790521 71.05546507 -340 35 C-339.28094482 34.12867432 -339.28094482 34.12867432 -338.54736328 33.23974609 C-328.38476381 20.95281822 -317.60620032 9.82259771 -305 0 C-303.7445289 -1.00748515 -302.489339 -2.01532077 -301.234375 -3.0234375 C-220.2064058 -67.3774319 -101.15787314 -71.29837011 0 0 Z " fill="#0F283C" transform="translate(409,69)"/>
<path d="M0 0 C0.91523438 0.69480469 1.83046875 1.38960937 2.7734375 2.10546875 C17.58736668 13.75711218 29.85968394 27.49254697 39 44 C34.85930283 46.43830153 30.71778005 48.87516262 26.57421875 51.30859375 C23.80077449 52.93802833 21.03181509 54.57437989 18.26953125 56.22265625 C16.68205078 57.16431641 16.68205078 57.16431641 15.0625 58.125 C14.12535156 58.68445313 13.18820312 59.24390625 12.22265625 59.8203125 C10 61 10 61 8 61 C6.56848903 59.06912473 5.24561707 57.13712291 3.9375 55.125 C-12.88953087 30.09274283 -37.73130087 14.92582859 -67 9 C-95.61064393 4.5242755 -124.82091153 10.83874748 -148.61328125 27.453125 C-173.04105673 45.30500538 -187.97860315 71.18109542 -192.61328125 100.9375 C-195.88574839 130.50644777 -188.44625101 160.13200515 -169.78881836 183.53515625 C-151.82941498 205.28831622 -126.29771022 219.70976693 -98.08374023 222.83227539 C-68.22875038 225.23536596 -39.23966047 217.76610155 -15.91796875 198.51171875 C-6.09325152 190.05483364 0.95847405 180.78986676 8 170 C12.75 171.875 12.75 171.875 15 173 C15 161.12 15 149.24 15 137 C-16.02 137 -47.04 137 -79 137 C-79 126.11 -79 115.22 -79 104 C-37.09 104 4.82 104 48 104 C48 149.54 48 195.08 48 242 C37.11 242 26.22 242 15 242 C14.67 234.41 14.34 226.82 14 219 C12.39125 220.505625 10.7825 222.01125 9.125 223.5625 C-18.9003372 249.21949884 -56.68568697 260.69418503 -94.20556641 259.1640625 C-121.80535016 257.54366632 -149.0958394 247.98628432 -171 231 C-171.91523438 230.30519531 -172.83046875 229.61039062 -173.7734375 228.89453125 C-204.03872849 205.0898826 -223.70330282 170.54488547 -228.49609375 132.3046875 C-232.31894252 96.20674692 -223.41255223 58.9014439 -201 30 C-200.30519531 29.08476562 -199.61039063 28.16953125 -198.89453125 27.2265625 C-175.0898826 -3.03872849 -140.54488547 -22.70330282 -102.3046875 -27.49609375 C-66.20674692 -31.31894252 -28.9014439 -22.41255223 0 0 Z " fill="#DCB973" transform="translate(342,141)"/>
<path d="M0 0 C0.58088379 0.47937012 1.16176758 0.95874023 1.76025391 1.45263672 C14.04718178 11.61523619 25.17740229 22.39379968 35 35 C36.00748515 36.2554711 37.01532077 37.510661 38.0234375 38.765625 C76.84564961 87.6465847 94.41897193 150.93237827 88.17578125 212.89794922 C82.72902587 259.40767628 65.11790521 303.94453493 35 340 C34.52062988 340.58088379 34.04125977 341.16176758 33.54736328 341.76025391 C23.38476381 354.04718178 12.60620032 365.17740229 0 375 C-1.2554711 376.00748515 -2.510661 377.01532077 -3.765625 378.0234375 C-52.6465847 416.84564961 -115.93237827 434.41897193 -177.89794922 428.17578125 C-224.40767628 422.72902587 -268.94453493 405.11790521 -305 375 C-305.87132568 374.28094482 -305.87132568 374.28094482 -306.76025391 373.54736328 C-319.04718178 363.38476381 -330.17740229 352.60620032 -340 340 C-341.00748515 338.7445289 -342.01532077 337.489339 -343.0234375 336.234375 C-381.84564961 287.3534153 -399.41897193 224.06762173 -393.17578125 162.10205078 C-387.72902587 115.59232372 -370.11790521 71.05546507 -340 35 C-339.28094482 34.12867432 -339.28094482 34.12867432 -338.54736328 33.23974609 C-328.38476381 20.95281822 -317.60620032 9.82259771 -305 0 C-303.7445289 -1.00748515 -302.489339 -2.01532077 -301.234375 -3.0234375 C-220.2064058 -67.3774319 -101.15787314 -71.29837011 0 0 Z M-313 27 C-313.75023437 27.70898438 -314.50046875 28.41796875 -315.2734375 29.1484375 C-328.53414014 41.98982938 -339.91787156 57.96481222 -349 74 C-349.62624268 75.10093994 -349.62624268 75.10093994 -350.26513672 76.22412109 C-380.6083132 130.21246642 -386.48897081 192.68253358 -370 252 C-359.49052504 288.73753003 -339.2789891 320.56419553 -313 348 C-312.29101562 348.75023437 -311.58203125 349.50046875 -310.8515625 350.2734375 C-298.01017062 363.53414014 -282.03518778 374.91787156 -266 384 C-264.89906006 384.62624268 -264.89906006 384.62624268 -263.77587891 385.26513672 C-209.78753358 415.6083132 -147.31746642 421.48897081 -88 405 C-51.26246997 394.49052504 -19.43580447 374.2789891 8 348 C8.75023437 347.29101562 9.50046875 346.58203125 10.2734375 345.8515625 C23.53414014 333.01017062 34.91787156 317.03518778 44 301 C44.62624268 299.89906006 44.62624268 299.89906006 45.26513672 298.77587891 C75.6083132 244.78753358 81.48897081 182.31746642 65 123 C54.49052504 86.26246997 34.2789891 54.43580447 8 27 C7.29101562 26.24976562 6.58203125 25.49953125 5.8515625 24.7265625 C-6.98982938 11.46585986 -22.96481222 0.08212844 -39 -9 C-39.73395996 -9.41749512 -40.46791992 -9.83499023 -41.22412109 -10.26513672 C-121.91950642 -55.61852369 -222.67006964 -46.26257153 -313 27 Z " fill="#C4A05A" transform="translate(409,69)"/>
</svg>
